<?xml version="1.0" encoding="UTF-8" standalone="no"?>
<svg
   width="1367.049"
   height="1367.049"
   viewBox="0 0 1366.8563 1366.8568"
   version="1.1"
   id="svg1"
   xml:space="preserve"
   sodipodi:docname="fox_v3.svg"
   inkscape:version="1.4.2 (f4327f4, 2025-05-13)"
   xmlns:inkscape="http://www.inkscape.org/namespaces/inkscape"
   xmlns:sodipodi="http://sodipodi.sourceforge.net/DTD/sodipodi-0.dtd"
   xmlns="http://www.w3.org/2000/svg"
   xmlns:svg="http://www.w3.org/2000/svg"><sodipodi:namedview
     id="namedview1"
     pagecolor="#ffffff"
     bordercolor="#000000"
     borderopacity="0.25"
     inkscape:showpageshadow="2"
     inkscape:pageopacity="0.0"
     inkscape:pagecheckerboard="0"
     inkscape:deskcolor="#d1d1d1"
     inkscape:zoom="0.35355339"
     inkscape:cx="-179.60512"
     inkscape:cy="924.89567"
     inkscape:window-width="2560"
     inkscape:window-height="1368"
     inkscape:window-x="1912"
     inkscape:window-y="-8"
     inkscape:window-maximized="1"
     inkscape:current-layer="svg1" /><defs
     id="defs1" /><g
     id="g13"
     transform="translate(-10.068881,-26.16529)"><path
       id="Tail"
       fill="none"
       stroke="black"
       stroke-width="1"
       d="m 522.00317,1293.9645 c -72.1,-51.3 -9.4104,-180.9081 47.5896,-307.80817 57,-126.89997 234.79471,-147.8025 287.09471,-232.40253 52.3,-84.6 117.9,-202.3 117.1,-356.3 -17.7,-202.7 -262.59471,-369.597471 -262.59471,-369.597471 0,0 184.0964,-21.000003 359.09633,85.000001 174.8998,106 231.0131,293.13334 231.2998,464.3 0.2713,161.95429 -59.7,302.90003 -216.1999,444.20007 -156.39983,141.3 -277.58231,186.6576 -387.69623,208.6 -99.21591,15.058 -166.9896,70.3081 -175.6896,64.0081 z"
       style="display:inline;fill:#ff8000;fill-opacity:1;stroke:none;stroke-width:6.89903;stroke-dasharray:none;stroke-opacity:1"
       sodipodi:nodetypes="csscccsccc" /><path
       id="Head"
       fill="none"
       stroke="black"
       stroke-width="1"
       d="m 480.0045,1392.522 c 0,0 355.2,-265.2 352.9,-458.50008 -2.4,-193.3 -61.1,-276.7 -61.1,-277.6 0,-0.9 102.8,-380 102.8,-380 0,0 -191.8,186.4 -220.2,205.5 -28.3,19.1 -92,46.7 -174.4,47.8 m 0,862.80008 c 0,0 -355.2,-265.2 -352.8,-458.50008 2.3,-193.3 61,-276.7 61,-277.6 0,-0.9 -102.800004,-380 -102.800004,-380 0,0 191.800004,186.4 220.200004,205.5 28.3,19.1 92,46.7 174.4,47.8"
       style="display:inline;fill:#ff8000;fill-opacity:1;stroke:none;stroke-width:7.99887;stroke-dasharray:none;stroke-opacity:1" /><path
       id="Face Pattern copy"
       fill="none"
       stroke="black"
       stroke-width="1"
       d="m 480.0045,529.72192 c 6.9,-0.1 41.5,-1.2 52.4,-4.5 10.9,-3.3 -16.4,89.5 24.5,123.4 90.4,75.1 274.3,152.2 276,285.4 2.3,193.30008 -352.9,459.00008 -352.9,459.00008 0,0 0,0 0,0 0,0 -355.2,-265.7 -352.8,-459.00008 1.6,-133.2 185.5,-210.3 275.9,-285.4 40.9,-33.9 13.6,-126.7 24.5,-123.4 10.9,3.3 45.5,4.4 52.4,4.5"
       style="display:inline;fill:#1a1a00;fill-opacity:1;stroke:none" /><g
       id="g14"
       transform="matrix(1.1936183,0,0,1.5,-91.873199,-474.91291)"><path
         id="eye"
         fill="none"
         stroke="black"
         stroke-width="1"
         d="m 317.9045,921.82192 c -1.8,4.2 53.6,86.50008 58.8,39.80003 5.2,-46.70003 -57,-43.90003 -58.8,-39.80003 z"
         style="fill:#cccccc;fill-opacity:1;stroke:none" /><path
         id="eye copy"
         fill="none"
         stroke="black"
         stroke-width="1"
         d="m 631.1045,925.82192 c 1.9,4.2 -53.6,86.50008 -58.8,39.80003 -5.2,-46.70003 57,-43.90003 58.8,-39.80003 z"
         style="fill:#cccccc;fill-opacity:1;stroke:none" /></g><path
       id="Ear Strokes #2"
       fill="none"
       stroke="black"
       stroke-width="1"
       d="m 578.10119,582.61995 c 44.4,-19 177.42872,-166.82114 167.86619,-176.80009"
       style="stroke:#1a1a00;stroke-width:8.99874;stroke-linecap:square;stroke-linejoin:miter;stroke-dasharray:none;stroke-opacity:1" /><path
       id="Ear Strokes copy"
       fill="none"
       stroke="black"
       stroke-width="1"
       d="m 707.8045,586.22192 c 17.5,-2.2 49.75753,61.74143 60.78075,64.68539"
       style="stroke:#1a1a00;stroke-width:8.99874;stroke-linecap:square;stroke-linejoin:miter;stroke-dasharray:none;stroke-opacity:1" /><path
       id="Ear Strokes #1"
       fill="none"
       stroke="black"
       stroke-width="1"
       d="m 378.1551,584.87153 c -44.4,-19 -174.68629,-168.74538 -164.72506,-179.62498"
       style="stroke:#1a1a00;stroke-width:8.99874;stroke-linecap:square;stroke-linejoin:miter;stroke-dasharray:none;stroke-opacity:1" /><path
       id="Ear Strokes"
       fill="none"
       stroke="black"
       stroke-width="1"
       d="m 252.64638,585.86842 c -17.49304,-2.18906 -54.55586,63.35127 -61.23525,65.114"
       style="stroke:#1a1a00;stroke-width:8.99874;stroke-linecap:square;stroke-linejoin:miter;stroke-dasharray:none;stroke-opacity:1" /><ellipse
       style="fill:#cccccc;stroke:none;stroke-width:8.99874;stroke-linecap:square"
       id="path1"
       ry="39.994381"
       rx="49.992973"
       cy="1301.0917"
       cx="394.80969"
       transform="translate(85.404496,26.165131)" /></g></svg>
