<?xml version="1.0" encoding="UTF-8" standalone="no"?>
<svg
   width="1367.049"
   height="1367.049"
   viewBox="0 0 1366.8563 1366.8568"
   version="1.1"
   id="svg1"
   xml:space="preserve"
   sodipodi:docname="fox_v7.svg"
   inkscape:version="1.4.2 (f4327f4, 2025-05-13)"
   inkscape:export-filename="fox_v7_2048.png"
   inkscape:export-xdpi="71.909645"
   inkscape:export-ydpi="71.909645"
   xmlns:inkscape="http://www.inkscape.org/namespaces/inkscape"
   xmlns:sodipodi="http://sodipodi.sourceforge.net/DTD/sodipodi-0.dtd"
   xmlns="http://www.w3.org/2000/svg"
   xmlns:svg="http://www.w3.org/2000/svg"><sodipodi:namedview
     id="namedview1"
     pagecolor="#ffffff"
     bordercolor="#000000"
     borderopacity="0.25"
     inkscape:showpageshadow="2"
     inkscape:pageopacity="0.0"
     inkscape:pagecheckerboard="0"
     inkscape:deskcolor="#d1d1d1"
     inkscape:zoom="0.70710678"
     inkscape:cx="152.02796"
     inkscape:cy="636.3961"
     inkscape:window-width="2560"
     inkscape:window-height="1368"
     inkscape:window-x="1912"
     inkscape:window-y="-8"
     inkscape:window-maximized="1"
     inkscape:current-layer="svg1" /><defs
     id="defs1"><inkscape:path-effect
       effect="fill_between_many"
       method="originald"
       linkedpaths="#path8,0,1|#path7,0,1|"
       id="path-effect18" /><inkscape:path-effect
       effect="fill_between_many"
       method="originald"
       linkedpaths="#path65,0,1|#path51,0,1|"
       id="path-effect79" /></defs><path
     id="Tail"
     style="display:inline;fill:#ff8000;fill-opacity:1;stroke:none;stroke-width:6.89903;stroke-dasharray:none;stroke-opacity:1"
     d="m 1111.187,141.106 10.653,110.772 -82.801,-13.221 12.248,79.335 -103.345,-18.874 c 156.4027,362.78026 -343.61327,609.70759 -378.349,687.04 -57,126.9 -157.86939,201.3614 -85.76939,252.6614 69.33599,70.3775 818.68619,-111.8877 817.76439,-661.6624 -0.263,-156.938 -47.749,-327.109 -190.401,-436.05 z"
     transform="translate(-10.068881,-26.16529)"
     sodipodi:nodetypes="cccccccccc" /><path
     id="path51"
     style="display:inline;fill:#ff8000;fill-opacity:1;stroke:none;stroke-width:7.99887;stroke-dasharray:none;stroke-opacity:1"
     d="m 85.404,276.421 c 0,0 85.365,314.804 100.515,371.356 l 3.79,-0.998 c 0.066,-0.03 0.144,-0.056 0.295,-0.191 0.409,-0.366 1.061,-1.046 1.83,-1.937 1.537,-1.783 3.564,-4.422 5.88,-7.563 4.632,-6.283 10.459,-14.602 16.664,-22.848 6.204,-8.247 12.767,-16.421 19.126,-22.596 5.565,-5.404 10.875,-9.891 17.015,-10.315 0.439,-0.03 0.882,-0.04 1.33,-0.027 0.447,0.012 0.898,0.046 1.355,0.103 l 4.466,0.559 -1.119,8.93 -4.464,-0.56 c -1.434,-0.179 -6.598,2.216 -12.317,7.768 -5.718,5.553 -12.12,13.463 -18.203,21.548 -6.083,8.085 -11.866,16.347 -16.609,22.78 -2.371,3.217 -4.473,5.968 -6.31,8.098 -0.918,1.065 -1.762,1.975 -2.638,2.761 -0.877,0.786 -1.62,1.561 -3.453,2.045 l -4.374,1.148 c 0.004,-0.009 0.007,-0.016 0.01,-0.023 0,-0.001 0.002,-0.005 0.002,-0.006 -0.623,1.716 -51.205,74.584 -59.82,240.497 1.143,-4.224 2.47,-8.4 3.97,-12.51 7.898,-21.812 20.508,-41.653 35.245,-59.464 16.576,-19.975 35.791,-37.599 55.937,-53.906 32.066,-25.877 66.582,-48.471 100.873,-71.238 20.81,-13.848 41.614,-27.623 61.534,-42.715 4.869,-3.705 9.774,-7.55 14.412,-11.409 6.641,-5.427 11.565,-12.686 15.113,-20.437 5.231,-11.465 7.791,-23.953 9.176,-36.421 0.458,-4.275 0.775,-8.698 0.957,-13.065 0.045,-1.438 0.119,-3.147 0.143,-4.691 0.081,-4.041 0.048,-8.177 -0.06,-12.158 -0.331,-10.348 -1.182,-20.687 -2.697,-30.931 -0.255,-1.13 -0.389,-3.425 -0.389,-3.425 0,0 -81.385,-21.317 -116.985,-42.658 -32.955,-19.755 -85.865,-76.901 -85.865,-76.901 l -2.261,2.466 c 0.002,0.097 -0.024,0.022 0.041,0.287 0.269,1.092 1.043,3.05 2.297,5.456 2.508,4.812 6.868,11.528 12.549,19.361 11.362,15.666 28.033,35.925 46.392,56.422 18.359,20.497 38.423,41.255 56.578,58 18.155,16.744 34.723,29.5 44.589,33.722 l 4.138,1.771 -3.542,8.272 -4.136,-1.769 c -12.334,-5.278 -28.7,-18.365 -47.15,-35.382 -18.45,-17.017 -38.662,-37.937 -57.179,-58.611 -18.518,-20.674 -35.324,-41.077 -46.976,-57.142 -5.826,-8.033 -10.358,-14.949 -13.242,-20.483 -1.442,-2.767 -2.489,-5.162 -3.056,-7.468 -0.567,-2.306 -0.985,-5.185 1.33,-7.714 l 3.08,-3.357 C 152.494,341.622 85.404,276.421 85.404,276.421 Z m 789.201,0 c 0,0 -67.593,65.69 -128.468,123.073 l 3.08,3.214 c 1.229,1.283 1.668,2.934 1.73,4.228 0.062,1.294 -0.156,2.405 -0.471,3.523 -0.629,2.237 -1.726,4.549 -3.226,7.237 -3.001,5.377 -7.669,12.136 -13.65,20.009 -11.962,15.745 -29.147,35.819 -48.03,56.191 -18.883,20.372 -39.447,41.017 -58.156,57.832 -18.709,16.815 -35.249,29.768 -47.542,35.028 l -4.138,1.771 -3.539,-8.274 4.134,-1.769 c 9.907,-4.24 26.647,-16.889 45.07,-33.446 18.423,-16.557 38.843,-37.052 57.572,-57.258 18.729,-20.206 35.784,-40.146 47.462,-55.518 5.839,-7.686 10.342,-14.262 12.959,-18.952 1.309,-2.345 2.131,-4.252 2.422,-5.286 0.001,-0.002 0,-0.004 0,-0.006 l 0.002,-0.002 v -0.002 l 0.002,-0.002 v -0.002 -0.002 c 0,-0.002 0.001,-0.007 0.002,-0.012 l -2.228,-2.34 c 0,0 -64.359,60.9 -85.187,76.265 -45.391,30.635 -116.823,42.631 -116.823,42.631 0,0 -0.961,6.086 -1.322,9.098 -0.588,4.7 -1.029,9.526 -1.363,14.174 -0.292,4.067 -0.491,8.255 -0.59,12.254 -0.101,4.095 -0.103,8.327 -0.002,12.326 0.064,2.479 0.179,5.068 0.32,7.472 0.73,11.681 2.36,23.374 5.823,34.579 0.216,0.726 0.525,1.623 0.713,2.224 2.311,6.856 5.378,13.507 9.592,19.411 0.557,0.781 1.239,1.685 1.771,2.345 1.767,2.211 3.71,4.284 5.831,6.159 13.524,11.352 27.869,21.679 42.373,31.732 29.482,20.356 59.766,39.524 89.144,60.033 24.905,17.399 49.321,35.639 71.66,56.275 18.63,17.245 35.899,36.219 49.411,57.791 9.065,14.423 16.3,30.1 20.774,46.55 -8.727,-166.615 -59.7,-239.412 -59.911,-240.548 l -4.382,-1.174 c -3.075,-0.821 -4.926,-2.668 -7.122,-4.925 -2.196,-2.257 -4.503,-5.095 -6.983,-8.356 -4.96,-6.522 -10.57,-14.724 -16.34,-22.7 -5.769,-7.976 -11.717,-15.725 -17.046,-21.124 -5.33,-5.399 -10.038,-7.656 -11.567,-7.464 l -4.462,0.562 -1.123,-8.93 4.464,-0.56 c 0.451,-0.057 0.897,-0.089 1.338,-0.102 0.441,-0.012 0.877,-0.004 1.308,0.025 6.046,0.415 11.208,4.84 16.445,10.145 5.985,6.063 12.074,14.07 17.935,22.173 5.861,8.102 11.475,16.3 16.211,22.526 2.368,3.113 4.524,5.736 6.271,7.53 1.555,1.598 2.97,2.405 3.035,2.502 v 0.002 l 0.002,0.002 v 0.002 0.002 h -0.002 v 0.002 h -0.002 -0.002 -0.006 l 4.329,1.15 C 789.301,591.001 874.605,276.421 874.605,276.421 Z M 188.204,656.432 c 0,0.001 -0.002,0.003 -0.002,0.004 l 0.002,-0.002 z m 644.7,277.59 c 0.072,6.041 -0.206,12.151 -0.81,18.322 0.605,-6.17 0.882,-12.281 0.81,-18.322 z m -0.81,18.322 c -0.605,6.171 -1.537,12.402 -2.775,18.683 1.238,-6.281 2.17,-12.511 2.775,-18.683 z m -9.669,44.625 c -1.293,4.075 -2.509,8.141 -4.021,12.242 1.512,-4.101 2.728,-8.167 4.021,-12.242 z m -8.471,22.302 c -3.911,9.584 -7.813,19.173 -12.756,28.828 4.943,-9.655 8.845,-19.244 12.756,-28.828 z m -21.86,44.681 c -4.365,7.745 -8.442,15.495 -13.338,23.223 4.896,-7.729 8.973,-15.478 13.338,-23.223 z m -39.016,58.16 c -10.22,14.017 -19.505,28.268 -30.789,41.885 11.285,-13.618 20.568,-27.867 30.789,-41.885 z m -62.888,77.345 c -10.994,12.117 -21.636,24.814 -32.82,36.245 11.185,-11.433 21.824,-24.126 32.82,-36.245 z m -90.993,89.872 c -21.848,20.008 -46.309,44.133 -63.702,58.712 17.409,-14.592 41.823,-38.677 63.702,-58.712 z"
     inkscape:label="Head"
     sodipodi:nodetypes="cccsssssssccccsssssccscccccccccccccccscccssssccccsssssccccccsssssscccsssssscccccsccccccsccccccccccccccssssccccscssssccccccccsccccccccccccccccccccccccccccccc"
     transform="translate(-10.068881,-26.16529)" /><path
     id="path65"
     style="display:inline;fill:#1a1a00;fill-opacity:1;stroke:none"
     inkscape:label="Black Face Pattern"
     d="m 213.191,398.851 -3.08,3.357 c -2.315,2.529 -1.897,5.408 -1.33,7.714 0.567,2.306 1.614,4.701 3.056,7.468 2.884,5.534 7.416,12.451 13.242,20.483 11.652,16.065 28.458,36.468 46.976,57.142 18.518,20.674 38.729,41.594 57.179,58.611 18.45,17.017 34.816,30.104 47.15,35.382 l 4.136,1.769 3.542,-8.272 -4.138,-1.771 c -9.866,-4.222 -26.435,-16.977 -44.589,-33.722 -18.155,-16.744 -38.219,-37.503 -56.578,-58 -18.359,-20.497 -35.03,-40.756 -46.392,-56.422 -5.681,-7.833 -10.041,-14.549 -12.549,-19.361 -1.254,-2.406 -2.028,-4.364 -2.297,-5.456 -0.065,-0.265 -0.039,-0.191 -0.041,-0.287 l 2.261,-2.466 c -2.173,-2.044 -4.357,-4.101 -6.55,-6.169 z m 532.946,0.642 c -2.192,2.066 -4.375,4.122 -6.546,6.163 l 2.228,2.34 c -0.001,0.005 -0.002,0.01 -0.002,0.012 v 0.002 0.002 l -0.002,0.002 c -0.001,0.002 -0.001,0.006 -0.002,0.01 -0.291,1.034 -1.113,2.941 -2.422,5.286 -2.618,4.691 -7.12,11.267 -12.959,18.952 -11.679,15.372 -28.733,35.312 -47.462,55.518 -18.729,20.206 -39.149,40.7 -57.572,57.258 -18.423,16.557 -35.163,29.207 -45.07,33.446 l -4.134,1.769 3.539,8.274 4.138,-1.771 c 12.293,-5.26 28.833,-18.214 47.542,-35.028 18.709,-16.815 39.273,-37.46 58.156,-57.832 18.883,-20.372 36.068,-40.446 48.03,-56.191 5.981,-7.873 10.65,-14.632 13.65,-20.009 1.5,-2.689 2.597,-5.001 3.226,-7.237 0.314,-1.118 0.532,-2.229 0.471,-3.523 -0.062,-1.294 -0.501,-2.945 -1.73,-4.228 z M 537.581,524.552 c -17.873,2.996 -37.15,4.897 -57.576,5.169 -20.364,-0.272 -39.586,-2.161 -57.414,-5.142 0.033,1.15 0.133,2.295 0.389,3.425 1.515,10.244 2.366,20.583 2.697,30.931 0.108,3.982 0.141,8.117 0.06,12.158 -0.023,1.543 -0.098,3.252 -0.143,4.691 -0.182,4.366 -0.499,8.79 -0.957,13.065 -1.386,12.468 -3.945,24.956 -9.176,36.421 -3.548,7.751 -8.472,15.009 -15.113,20.437 -4.638,3.859 -9.543,7.704 -14.412,11.409 -19.921,15.091 -40.725,28.867 -61.534,42.715 -34.291,22.767 -68.807,45.361 -100.873,71.238 -20.146,16.307 -39.361,33.932 -55.937,53.906 -14.737,17.812 -27.347,37.652 -35.245,59.464 -1.501,4.112 -2.829,8.288 -3.972,12.514 v 0.004 c -0.836,11.876 -1.012,24.228 -1.17,37.065 -0.595,48.325 21.149,101.144 54.112,153.189 32.962,52.045 77.139,103.316 121.389,148.548 88.5,90.463 177.299,156.763 177.299,156.763 0,0 88.801,-66.301 177.313,-156.763 44.256,-45.231 88.44,-96.502 121.416,-148.548 16.488,-26.023 30.174,-52.238 39.666,-77.989 10.833,-35.369 20.459,-75.235 13.317,-112.242 -3.378,-16.789 -11.886,-31.992 -20.775,-46.554 -13.511,-21.572 -30.78,-40.545 -49.411,-57.79 -22.338,-20.637 -46.754,-38.877 -71.659,-56.276 -29.377,-20.508 -59.661,-39.677 -89.144,-60.033 -14.504,-10.053 -28.849,-20.38 -42.373,-31.732 -2.122,-1.875 -4.064,-3.948 -5.831,-6.159 -0.532,-0.661 -1.214,-1.564 -1.771,-2.345 -4.214,-5.904 -7.281,-12.555 -9.592,-19.411 -0.187,-0.601 -0.497,-1.499 -0.713,-2.224 -3.464,-11.206 -5.094,-22.898 -5.823,-34.579 -0.142,-2.404 -0.256,-4.993 -0.32,-7.472 -0.101,-3.999 -0.099,-8.232 0.002,-12.326 0.099,-3.999 0.298,-8.187 0.59,-12.254 0.334,-4.648 0.775,-9.474 1.363,-14.174 0.361,-3.012 0.821,-6.058 1.322,-9.098 z M 251.849,581.3 c -0.447,-0.012 -0.891,-0.003 -1.33,0.027 -6.14,0.424 -11.45,4.911 -17.015,10.315 -6.36,6.176 -12.922,14.35 -19.126,22.596 -6.204,8.247 -12.032,16.565 -16.664,22.848 -2.316,3.141 -4.343,5.78 -5.88,7.563 -0.769,0.892 -1.421,1.571 -1.83,1.937 -0.151,0.136 -0.229,0.161 -0.295,0.191 l -3.79,0.998 c 1.475,5.507 2.285,8.565 2.285,8.645 v 0.006 0.002 0.002 c 0,0.001 -0.001,0.002 -0.002,0.004 0,0.001 -0.002,0.004 -0.002,0.006 v 0.002 c 0,0.001 -0.002,0.001 -0.002,0.002 -0.001,0.003 -0.002,0.008 -0.004,0.012 -0.003,0.007 -0.006,0.015 -0.01,0.023 l 4.374,-1.148 c 1.832,-0.484 2.576,-1.258 3.453,-2.045 0.877,-0.786 1.72,-1.696 2.638,-2.761 1.836,-2.13 3.938,-4.882 6.31,-8.098 4.743,-6.433 10.526,-14.695 16.609,-22.78 6.083,-8.085 12.484,-15.995 18.203,-21.548 5.718,-5.553 10.882,-7.948 12.317,-7.768 l 4.464,0.56 1.119,-8.93 -4.466,-0.559 c -0.457,-0.057 -0.908,-0.091 -1.355,-0.103 z m 456.733,0.355 c -0.441,0.012 -0.886,0.045 -1.338,0.102 l -4.464,0.56 1.123,8.93 4.462,-0.562 c 1.529,-0.192 6.237,2.065 11.567,7.464 5.33,5.399 11.277,13.148 17.046,21.124 5.769,7.976 11.379,16.178 16.34,22.7 2.48,3.261 4.787,6.099 6.983,8.356 2.196,2.257 4.047,4.104 7.122,4.925 l 4.382,1.174 v -0.002 -0.002 -0.002 c 0,-0.08 0.815,-3.161 2.3,-8.706 l -4.329,-1.15 h 0.006 0.002 0.002 v -0.002 h 0.002 v -0.002 -0.002 l -0.002,-0.002 v -0.002 c -0.065,-0.097 -1.48,-0.903 -3.035,-2.502 -1.746,-1.795 -3.903,-4.417 -6.271,-7.53 -4.735,-6.226 -10.35,-14.424 -16.211,-22.526 -5.861,-8.102 -11.95,-16.11 -17.935,-22.173 -5.237,-5.305 -10.399,-9.73 -16.445,-10.145 -0.432,-0.03 -0.868,-0.038 -1.308,-0.025 z"
     transform="translate(-10.068881,-26.16529)"
     sodipodi:nodetypes="ccsscsscccccsssccccccccsccccccscsccccscccccccccccccccccccccccscccssssccccccccccccccccccsccscccsccscsscccccscscsccccccccccsscsccccscccccccccccccssccc" /><path
     id="eye"
     style="display:inline;fill:#cccccc;fill-opacity:1;stroke:none"
     d="m 319.155,905.702 c -9.005,0.164 -15.342,1.581 -16.017,3.118 -2.7,6.3 80.399,129.75 88.199,59.7 5.85,-52.538 -45.168,-63.31 -72.182,-62.818 z m 310.697,4.001 c -27.014,-0.492 -78.034,10.279 -72.184,62.817 7.8,70.05 91.051,-53.4 88.201,-59.7 -0.675,-1.538 -7.012,-2.953 -16.017,-3.117 z M 479.288,1174.784 a 41.884,26.663 0 0 0 -41.884,26.663 41.884,26.663 0 0 0 41.884,26.663 41.884,26.663 0 0 0 41.884,-26.663 41.884,26.663 0 0 0 -41.884,-26.663 z"
     inkscape:label="Grey Face Pattern"
     transform="matrix(1.1936183,0,0,1.5,-101.94208,-501.0782)" /><path
     id="path79"
     style="baseline-shift:baseline;display:inline;overflow:visible;opacity:1;vector-effect:none;fill:#cccccc;fill-opacity:1;stroke-linecap:square;enable-background:accumulate;stop-color:#000000;stop-opacity:1"
     d="m 942.65,90.654 17.814,65.795 -66.563,-16.42 16.767,90.349 c 14.192,21.781 26.947,44.787 37.274,68.74 l 103.345,18.874 -12.248,-79.336 82.801,13.221 -10.696,-111.215 c -21.206,-16.16348 -42.7914,-29.63465 -64.937,-41.584 z"
     inkscape:label="grey streak"
     transform="translate(-10.068881,-26.16529)"
     sodipodi:nodetypes="ccccccccccc" /><path
     id="path80"
     style="display:inline;fill:#1a1a00;stroke:none;stroke-width:0.999859;stroke-linecap:square"
     inkscape:label="black streak"
     d="m 701.124,1.691 c 0,0 121.45,82.769 199.476,202.522 l -16.767,-90.349 66.563,16.42 -17.814,-65.795 103.558,8.425 C 872.3184,-15.500538 709.18119,0.8179019 701.124,1.691 Z"
     sodipodi:nodetypes="ccccccc" /></svg>
